<?xml version="1.0" encoding="utf-8"?>
<!-- Generator: Adobe Illustrator 25.0.1, SVG Export Plug-In . SVG Version: 6.00 Build 0)  -->
<svg version="1.1" id="Camada_1" xmlns="http://www.w3.org/2000/svg" xmlns:xlink="http://www.w3.org/1999/xlink" x="0px" y="0px"
	 viewBox="0 0 453.3 256.2" style="enable-background:new 0 0 453.3 256.2;" xml:space="preserve">
<style type="text/css">
	.st0{fill:none;stroke:#000000;stroke-miterlimit:10;}
</style>
<symbol  id="im0" viewBox="-2985 -1687 5970 3374">
	
		<image style="overflow:visible;enable-background:new    ;" width="5970" height="3374" xlink:href="7FAF1904.png"  transform="matrix(1 0 0 -1 -2985 1687)">
	</image>
</symbol>
<g id="Camada_2_1_">
	<g id="Camada_1-2">
		<g>
			
				<use xlink:href="#im0"  width="5970" height="3374" x="-2985" y="-1687" transform="matrix(8.000000e-02 0 0 -8.000000e-02 217.0805 130.3929)" style="overflow:visible;"/>
		</g>
	</g>
</g>
<path class="st0" d="M381.2,15.3c-0.5,2.8,0.2,5.7,1.4,8.3c5.1,11.6,17.5,18,29.5,22c6.7,2.3,13.8,4.1,20.9,3.6
	c2.8-0.2,5.8-0.8,8-2.6c2-1.5,3.2-3.8,4.3-6c2.2-4.4,4-9,4.7-13.9c0.4-3.1,0.3-6.5-1.3-9.2c-2.6-4.3-8-5.7-12.8-6.8
	C424.3,8.1,384.9-6.2,381.2,15.3z"/>
</svg>
