<svg xmlns="http://www.w3.org/2000/svg" xmlns:xlink="http://www.w3.org/1999/xlink" width="1080" zoomAndPan="magnify" viewBox="0 0 810 809.999993" height="1080" preserveAspectRatio="xMidYMid meet" version="1.0"><defs><g/></defs><g fill="rgb(0%, 0%, 0%)" fill-opacity="1"><g transform="translate(234.860075, 366.519465)"><g><path d="M 28.34375 0 L 28.34375 -94.480469 L 6.75 -94.480469 L 6.75 0 Z M 28.34375 0 "/></g></g></g><g fill="rgb(0%, 0%, 0%)" fill-opacity="1"><g transform="translate(284.392802, 366.519465)"><g><path d="M 83.007812 0 L 96.503906 -13.496094 L 96.503906 -44.539062 L 83.007812 -58.035156 L 28.34375 -58.035156 L 28.34375 -72.882812 L 96.503906 -72.882812 L 96.503906 -94.480469 L 20.246094 -94.480469 L 6.75 -80.980469 L 6.75 -49.9375 L 20.246094 -36.441406 L 74.910156 -36.441406 L 74.910156 -21.59375 L 6.75 -21.59375 L 6.75 0 Z M 83.007812 0 "/></g></g></g><g fill="rgb(0%, 0%, 0%)" fill-opacity="1"><g transform="translate(402.08276, 366.519465)"><g><path d="M 93.128906 0 L 93.128906 -21.59375 L 32.394531 -21.59375 L 32.394531 -36.441406 L 79.632812 -36.441406 L 79.632812 -58.035156 L 32.394531 -58.035156 L 32.394531 -72.882812 L 93.128906 -72.882812 L 93.128906 -94.480469 L 0.675781 -94.480469 L 0.675781 -72.882812 L 10.796875 -72.882812 L 10.796875 0 Z M 93.128906 0 "/></g></g></g><g fill="rgb(0%, 0%, 0%)" fill-opacity="1"><g transform="translate(516.398588, 366.519465)"><g><path d="M 93.128906 0 L 93.128906 -21.59375 L 32.394531 -21.59375 L 32.394531 -36.441406 L 79.632812 -36.441406 L 79.632812 -58.035156 L 32.394531 -58.035156 L 32.394531 -72.882812 L 93.128906 -72.882812 L 93.128906 -94.480469 L 0.675781 -94.480469 L 0.675781 -72.882812 L 10.796875 -72.882812 L 10.796875 0 Z M 93.128906 0 "/></g></g></g><g fill="rgb(96.469116%, 23.139954%, 23.139954%)" fill-opacity="1"><g transform="translate(225.912693, 357.572083)"><g><path d="M 28.34375 0 L 28.34375 -94.480469 L 6.75 -94.480469 L 6.75 0 Z M 28.34375 0 "/></g></g></g><g fill="rgb(96.469116%, 23.139954%, 23.139954%)" fill-opacity="1"><g transform="translate(275.44542, 357.572083)"><g><path d="M 83.007812 0 L 96.503906 -13.496094 L 96.503906 -44.539062 L 83.007812 -58.035156 L 28.34375 -58.035156 L 28.34375 -72.882812 L 96.503906 -72.882812 L 96.503906 -94.480469 L 20.246094 -94.480469 L 6.75 -80.980469 L 6.75 -49.9375 L 20.246094 -36.441406 L 74.910156 -36.441406 L 74.910156 -21.59375 L 6.75 -21.59375 L 6.75 0 Z M 83.007812 0 "/></g></g></g><g fill="rgb(96.469116%, 23.139954%, 23.139954%)" fill-opacity="1"><g transform="translate(393.135378, 357.572083)"><g><path d="M 93.128906 0 L 93.128906 -21.59375 L 32.394531 -21.59375 L 32.394531 -36.441406 L 79.632812 -36.441406 L 79.632812 -58.035156 L 32.394531 -58.035156 L 32.394531 -72.882812 L 93.128906 -72.882812 L 93.128906 -94.480469 L 0.675781 -94.480469 L 0.675781 -72.882812 L 10.796875 -72.882812 L 10.796875 0 Z M 93.128906 0 "/></g></g></g><g fill="rgb(96.469116%, 23.139954%, 23.139954%)" fill-opacity="1"><g transform="translate(507.451206, 357.572083)"><g><path d="M 93.128906 0 L 93.128906 -21.59375 L 32.394531 -21.59375 L 32.394531 -36.441406 L 79.632812 -36.441406 L 79.632812 -58.035156 L 32.394531 -58.035156 L 32.394531 -72.882812 L 93.128906 -72.882812 L 93.128906 -94.480469 L 0.675781 -94.480469 L 0.675781 -72.882812 L 10.796875 -72.882812 L 10.796875 0 Z M 93.128906 0 "/></g></g></g></svg>